<svg xmlns="http://www.w3.org/2000/svg" viewBox="0 0 640 640">
  <defs>
    <radialGradient id="glow" cx="50%" cy="50%" r="60%">
      <stop offset="0%" stop-color="#9ad7ff" stop-opacity="0.8"/>
      <stop offset="70%" stop-color="#2e7de9" stop-opacity="0.4"/>
      <stop offset="100%" stop-color="#1a2a5f" stop-opacity="0"/>
    </radialGradient>
    <linearGradient id="stroke" x1="0%" y1="0%" x2="100%" y2="100%">
      <stop offset="0%" stop-color="#7ad8ff" stop-opacity="0.9"/>
      <stop offset="100%" stop-color="#4f78ff" stop-opacity="0.6"/>
    </linearGradient>
    <linearGradient id="orbit" x1="0%" y1="0%" x2="100%" y2="0%">
      <stop offset="0%" stop-color="#68b5ff" stop-opacity="0.85"/>
      <stop offset="100%" stop-color="#8ae3ff" stop-opacity="0.6"/>
    </linearGradient>
    <linearGradient id="orbit2" x1="0%" y1="0%" x2="0%" y2="100%">
      <stop offset="0%" stop-color="#5bc8ff" stop-opacity="0.85"/>
      <stop offset="100%" stop-color="#35a0f7" stop-opacity="0.45"/>
    </linearGradient>
  </defs>
  <rect width="640" height="640" fill="#0b1126"/>
  <circle cx="320" cy="320" r="250" fill="url(#glow)"/>
  <circle cx="320" cy="320" r="220" fill="none" stroke="url(#stroke)" stroke-width="2.6" stroke-opacity="0.7"/>
  <circle cx="320" cy="320" r="170" fill="none" stroke="url(#stroke)" stroke-width="2" stroke-opacity="0.5"/>
  <circle cx="320" cy="320" r="120" fill="none" stroke="url(#stroke)" stroke-width="1.4" stroke-opacity="0.4"/>
  <g stroke-linecap="round" stroke-linejoin="round" fill="none">
    <path d="M150 280C220 210 280 190 360 200C430 210 510 250 560 320" stroke="url(#orbit)" stroke-width="2.5" stroke-opacity="0.65"/>
    <path d="M120 340C200 360 280 360 360 340C430 320 500 280 540 230" stroke="url(#orbit2)" stroke-width="2.2" stroke-opacity="0.65"/>
    <path d="M200 440C270 420 350 410 430 420C500 430 560 460 600 500" stroke="url(#orbit)" stroke-width="2" stroke-opacity="0.5"/>
    <path d="M80 240C160 220 240 210 320 220C410 230 480 250 560 300" stroke="url(#orbit2)" stroke-width="1.8" stroke-opacity="0.55"/>
  </g>
  <g fill="#8ee8ff" fill-opacity="0.9">
    <circle cx="180" cy="260" r="6"/>
    <circle cx="280" cy="210" r="6"/>
    <circle cx="410" cy="240" r="6"/>
    <circle cx="520" cy="300" r="6"/>
    <circle cx="250" cy="360" r="6"/>
    <circle cx="360" cy="330" r="6"/>
    <circle cx="460" cy="360" r="6"/>
    <circle cx="380" cy="430" r="6"/>
    <circle cx="520" cy="450" r="6"/>
  </g>
</svg>
